<svg width="22" height="22" viewBox="0 0 22 22" fill="none" xmlns="http://www.w3.org/2000/svg">
<path d="M10.3349 0.0209637C5.52449 0.346769 1.53937 3.6315 0.344921 8.25726C0.0951691 9.21829 0.00830078 9.94577 0.00830078 11.0045C0.00830078 12.6387 0.290627 13.9852 0.942146 15.4837L1.17018 15.9994L0.56752 18.7358C-0.0188446 21.3853 -0.0351334 21.4831 0.0408745 21.6731C0.100601 21.8088 0.182041 21.8903 0.323196 21.95C0.518665 22.0314 0.589241 22.0206 3.26047 21.4288L5.99685 20.8207L6.41491 21.0108C8.07085 21.7653 10.0145 22.1129 11.7791 21.9717C15.3353 21.6948 18.4789 19.7946 20.3357 16.803C21.5356 14.8701 22.1437 12.4216 21.9591 10.2335C21.7256 7.40487 20.5692 4.9508 18.5766 3.0451C16.3831 0.954832 13.2939 -0.185366 10.3349 0.0209637ZM12.8541 1.3349C16.8175 2.13299 19.8308 5.15167 20.656 9.15854C20.7701 9.70691 20.7863 9.9295 20.7863 11.0045C20.7863 11.9601 20.7646 12.3293 20.6886 12.7148C19.9774 16.2547 17.7405 18.9422 14.4503 20.2126C12.0017 21.1627 8.99927 21.0161 6.65379 19.8325C6.44206 19.724 6.19774 19.6371 6.1163 19.6371C6.02943 19.6371 4.92727 19.8652 3.65681 20.1475C2.38635 20.4298 1.34392 20.6578 1.33849 20.6523C1.33306 20.6416 1.56109 19.5991 1.84341 18.334C2.12574 17.0691 2.35378 15.9723 2.35378 15.8963C2.35378 15.8257 2.2289 15.5 2.07687 15.1742C1.73483 14.4304 1.4688 13.6323 1.31134 12.8396C1.20276 12.3075 1.18647 12.0632 1.18647 11.0045C1.18647 9.94577 1.20276 9.70141 1.31134 9.1694C2.17461 4.89105 5.57336 1.74209 9.90054 1.20999C10.0037 1.19919 10.5792 1.19369 11.1764 1.20453C12.0288 1.21545 12.3872 1.24258 12.8541 1.3349Z" fill="#B0EBBD"/>
<path d="M7.73963 6.33498C5.93168 6.80733 4.71007 8.59898 4.95441 10.4287C5.02499 10.9553 5.14985 11.3517 5.3996 11.8349C5.54619 12.1172 5.98597 12.5787 8.15769 14.7613L10.7421 17.3565H10.9809H11.2199L13.6413 14.9567C14.9715 13.632 16.1605 12.4267 16.2746 12.2801C17.1541 11.1508 17.279 9.53285 16.5895 8.20811C16.4537 7.94746 16.2474 7.68147 15.9271 7.36113C15.5416 6.97023 15.3787 6.85622 14.9498 6.64445C13.7228 6.04179 12.3763 6.10155 11.2796 6.80189L11.0027 6.97563L10.8452 6.87251C9.97109 6.27525 8.76038 6.06892 7.73963 6.33498ZM9.58562 7.52943C9.87337 7.63261 10.3023 7.8986 10.666 8.18639C10.8724 8.34929 11.1655 8.33842 11.3827 8.15922C11.7519 7.85521 12.1157 7.63261 12.4251 7.5186C12.8758 7.35567 13.6467 7.35567 14.1028 7.524C14.8032 7.77376 15.319 8.24611 15.6448 8.93019C15.8402 9.34279 15.8456 9.35915 15.8456 9.99977C15.8456 10.7599 15.7533 11.0476 15.3679 11.5471C15.243 11.71 14.206 12.7742 13.0604 13.9089L10.9864 15.972L8.78208 13.7731C6.67008 11.6611 6.57235 11.558 6.3606 11.1291C6.15427 10.7164 6.13798 10.6404 6.11085 10.1464C6.09453 9.74461 6.11085 9.53285 6.18142 9.28856C6.43662 8.40358 7.15328 7.70317 8.05997 7.44798C8.46172 7.33394 9.17844 7.37196 9.58562 7.52943Z" fill="#B0EBBD"/>
</svg>
