<svg width="20" height="20" viewBox="0 0 20 20" fill="none" xmlns="http://www.w3.org/2000/svg">
<path d="M19.5921 5.79537C19.5481 4.79883 19.387 4.11371 19.1561 3.52005C18.918 2.88989 18.5516 2.32571 18.0716 1.85671C17.6025 1.38041 17.0346 1.0103 16.4118 0.77587C15.8147 0.545017 15.1332 0.383865 14.1366 0.339929C13.1326 0.292269 12.8139 0.28125 10.2675 0.28125C7.72106 0.28125 7.40235 0.292269 6.40208 0.336207C5.40553 0.380145 4.72042 0.541441 4.12689 0.772149C3.49659 1.0103 2.93241 1.37669 2.46341 1.85671C1.9871 2.32572 1.61713 2.89362 1.38256 3.51647C1.15171 4.11371 0.990556 4.79511 0.946619 5.79165C0.89896 6.79564 0.887939 7.11437 0.887939 9.66077C0.887939 12.2072 0.89896 12.5259 0.942898 13.5262C0.986836 14.5227 1.14813 15.2078 1.37898 15.8015C1.61714 16.4316 1.9871 16.9958 2.46341 17.4648C2.93241 17.9411 3.50032 18.3112 4.12318 18.5456C4.72042 18.7765 5.40181 18.9377 6.3985 18.9816C7.39863 19.0257 7.7175 19.0365 10.2639 19.0365C12.8103 19.0365 13.129 19.0257 14.1293 18.9816C15.1258 18.9377 15.811 18.7765 16.4045 18.5456C17.6649 18.0583 18.6615 17.0618 19.1488 15.8015C19.3795 15.2042 19.5408 14.5227 19.5848 13.5262C19.6287 12.5259 19.6397 12.2072 19.6397 9.66077C19.6397 7.11438 19.636 6.79563 19.5921 5.79537ZM17.9031 13.4529C17.8627 14.3688 17.7089 14.8634 17.5807 15.1932C17.2655 16.0103 16.617 16.6587 15.7999 16.9739C15.4702 17.1021 14.972 17.256 14.0596 17.2962C13.0704 17.3403 12.7737 17.3512 10.2712 17.3512C7.76878 17.3512 7.46836 17.3403 6.4827 17.2962C5.56673 17.256 5.0721 17.1021 4.74236 16.9739C4.33575 16.8236 3.96564 16.5855 3.66523 16.274C3.3538 15.9699 3.11565 15.6035 2.96537 15.1969C2.83714 14.8672 2.68328 14.3688 2.64307 13.4566C2.59899 12.4673 2.58811 12.1705 2.58811 9.66806C2.58811 7.16562 2.59898 6.8652 2.64307 5.8797C2.68328 4.96373 2.83714 4.46911 2.96537 4.13936C3.11565 3.73261 3.3538 3.36265 3.66895 3.0621C3.97294 2.75067 4.33933 2.51252 4.74607 2.36238C5.07582 2.23415 5.57417 2.08029 6.48642 2.03993C7.47567 1.996 7.7725 1.98497 10.2748 1.98497C12.781 1.98497 13.0777 1.996 14.0633 2.03993C14.9793 2.08029 15.4739 2.23415 15.8037 2.36238C16.2103 2.51252 16.5804 2.75067 16.8808 3.0621C17.1922 3.36623 17.4304 3.73261 17.5806 4.13936C17.7089 4.46911 17.8627 4.96731 17.9031 5.8797C17.947 6.86894 17.9581 7.16563 17.9581 9.66806C17.9581 12.1705 17.947 12.4636 17.9031 13.4529Z" fill="#86D694"/>
<path d="M10.2675 4.84277C7.60759 4.84277 5.44946 7.00076 5.44946 9.66076C5.44946 12.3208 7.60759 14.4788 10.2675 14.4788C12.9275 14.4788 15.0855 12.3208 15.0855 9.66076C15.0855 7.00076 12.9275 4.84277 10.2675 4.84277ZM10.2675 12.7861C8.54187 12.7861 7.14215 11.3865 7.14215 9.66076C7.14215 7.93503 8.54187 6.53549 10.2675 6.53549C11.9932 6.53549 13.3928 7.93503 13.3928 9.66076C13.3928 11.3865 11.9932 12.7861 10.2675 12.7861Z" fill="#86D694"/>
<path d="M16.4011 4.65213C16.4011 5.27326 15.8974 5.77689 15.2762 5.77689C14.6551 5.77689 14.1514 5.27326 14.1514 4.65213C14.1514 4.03084 14.6551 3.52734 15.2762 3.52734C15.8974 3.52734 16.4011 4.03084 16.4011 4.65213Z" fill="#86D694"/>
</svg>
