<svg width="17" height="20" viewBox="0 0 17 20" fill="none" xmlns="http://www.w3.org/2000/svg">
<path d="M16.6034 5.70186V8.59927C16.4476 8.59927 16.2607 8.63042 16.0738 8.63042C14.6718 8.63042 13.3633 8.10079 12.3663 7.25961V13.4283C12.3663 14.6745 11.9613 15.8584 11.2447 16.793C10.2478 18.1327 8.62773 19.0362 6.78959 19.0362C4.79568 19.0362 3.05101 17.9769 2.08521 16.4191C3.08216 17.3538 4.42182 17.9457 5.8861 17.9457C7.69309 17.9457 9.31314 17.0734 10.3101 15.7026C10.9955 14.7679 11.4317 13.6152 11.4317 12.3379V6.13803C12.4286 7.01037 13.706 7.50885 15.1391 7.50885C15.326 7.50885 15.4818 7.50885 15.6687 7.47769V5.6084C15.9491 5.67071 16.1984 5.70186 16.4788 5.70186H16.6034Z" fill="#86D694"/>
<path d="M7.5686 7.85147V11.0604C7.35051 10.9981 7.10127 10.967 6.88319 10.967C5.51237 10.967 4.3908 12.1197 4.3908 13.5217C4.3908 13.8332 4.45311 14.1136 4.54657 14.394C3.92347 13.9267 3.4873 13.179 3.4873 12.3378C3.4873 10.9358 4.60888 9.78307 5.97969 9.78307C6.22894 9.78307 6.44702 9.81423 6.6651 9.87654V7.82031C6.72742 7.82031 6.78972 7.82031 6.85203 7.82031C7.10127 7.82031 7.35051 7.82031 7.5686 7.85147Z" fill="#86D694"/>
<path d="M12.8338 3.39654C12.273 2.89806 11.868 2.21266 11.6499 1.49609H12.3976C12.3976 1.65187 12.3976 1.77649 12.3976 1.93226C12.4599 2.43074 12.6157 2.92922 12.8338 3.39654Z" fill="#86D694"/>
<path d="M15.6999 5.63969V7.50899C15.5441 7.54014 15.3572 7.54014 15.1702 7.54014C13.7683 7.54014 12.4598 7.01051 11.4628 6.16933V12.338C11.4628 13.5842 11.0578 14.7681 10.3412 15.7027C9.31311 17.0735 7.72421 17.9459 5.91723 17.9459C4.45295 17.9459 3.11329 17.3539 2.11633 16.4193C1.5867 15.547 1.27515 14.55 1.27515 13.4596C1.27515 10.4375 3.67407 7.97631 6.66494 7.88285V9.93907C6.44686 9.87676 6.19762 9.84561 5.97954 9.84561C4.60872 9.84561 3.48714 10.9983 3.48714 12.4003C3.48714 13.2415 3.89216 14.0204 4.54641 14.4565C4.88911 15.4223 5.82376 16.1389 6.88303 16.1389C8.25384 16.1389 9.37542 14.9862 9.37542 13.5842V1.49609H11.6497C11.8678 2.24381 12.2728 2.89806 12.8336 3.39654C13.3944 4.51812 14.4537 5.3593 15.6999 5.63969Z" fill="#86D694"/>
<path d="M6.66497 6.76153V7.8208C3.6741 7.91426 1.27517 10.3755 1.27517 13.3975C1.27517 14.4879 1.58672 15.4849 2.11635 16.3572C1.05708 15.3291 0.402832 13.896 0.402832 12.2759C0.402832 9.19161 2.89522 6.69922 5.9484 6.69922C6.19764 6.69922 6.44688 6.73037 6.66497 6.76153Z" fill="#86D694"/>
<path d="M11.6497 1.49629H9.37539V13.5221C9.37539 14.924 8.25382 16.0768 6.883 16.0768C5.79258 16.0768 4.88909 15.3914 4.54639 14.3944C4.9514 14.6748 5.44988 14.8617 5.97951 14.8617C7.35033 14.8617 8.4719 13.7402 8.4719 12.3382V0.28125H11.4939V0.34356C11.4939 0.468179 11.4939 0.592799 11.5251 0.717419C11.5251 0.966658 11.5874 1.24705 11.6497 1.49629Z" fill="#86D694"/>
<path d="M15.6999 4.48691V5.60848C14.4537 5.35924 13.3944 4.51806 12.8025 3.39648C13.5814 4.11305 14.5783 4.51806 15.6999 4.48691Z" fill="#86D694"/>
</svg>
