<svg width="25" height="20" viewBox="0 0 25 20" fill="none" xmlns="http://www.w3.org/2000/svg">
<path d="M24.063 2.50159C23.2045 2.87814 22.2899 3.12774 21.3362 3.24892C22.3173 2.66319 23.066 1.74273 23.4181 0.633278C22.5034 1.17863 21.4935 1.56384 20.4172 1.7788C19.5487 0.854012 18.3109 0.28125 16.9605 0.28125C14.3405 0.28125 12.2312 2.40782 12.2312 5.01481C12.2312 5.38992 12.263 5.7506 12.3409 6.09397C8.4066 5.90208 4.92532 4.01645 2.58668 1.144C2.17839 1.85237 1.9389 2.66319 1.9389 3.53603C1.9389 5.17495 2.78289 6.62777 4.04094 7.46887C3.28063 7.45444 2.53474 7.23371 1.90283 6.88602C1.90283 6.90044 1.90283 6.9192 1.90283 6.93795C1.90283 9.23764 3.5432 11.1478 5.69429 11.5878C5.30909 11.6931 4.88925 11.7436 4.45355 11.7436C4.15058 11.7436 3.84473 11.7263 3.55763 11.6628C4.17078 13.5369 5.9107 14.9147 7.97955 14.9595C6.36948 16.219 4.32515 16.9778 2.11202 16.9778C1.72393 16.9778 1.35171 16.9605 0.979492 16.9129C3.07576 18.2647 5.56012 19.0366 8.23924 19.0366C16.9475 19.0366 21.7084 11.823 21.7084 5.57026C21.7084 5.36106 21.7012 5.15908 21.6911 4.95855C22.6303 4.29201 23.4195 3.45956 24.063 2.50159Z" fill="#86D694"/>
</svg>
