<svg width="14" height="17" viewBox="0 0 14 17" fill="none" xmlns="http://www.w3.org/2000/svg">
<g id="shield">
<path id="Path 3468" d="M3.49884 1.58102L0.0150147 2.84686L0.0150147 6.07532C0.0150147 9.00833 0.0223084 9.33664 0.0806809 9.7197C0.350632 11.4379 1.0401 12.784 2.29135 14.0243C3.03555 14.7648 3.80527 15.3193 4.83035 15.8519C5.60008 16.2532 6.73825 16.6873 7.01185 16.6873C7.15047 16.6873 7.98951 16.4028 8.4601 16.1949C9.67123 15.6623 10.7474 14.9618 11.5974 14.1447C13.0055 12.7949 13.8008 11.157 13.9686 9.24545C13.9941 8.94629 14.005 7.7753 13.9977 5.81631L13.9868 2.84326L10.503 1.57736C8.58778 0.880615 7.01185 0.311523 7.0009 0.311523C6.98996 0.311523 5.41403 0.880615 3.49884 1.58102ZM10.5212 6.18115L10.9225 6.58243L8.37619 9.12869L5.83354 11.6714L4.45826 10.2961L3.08297 8.92078L3.49155 8.50854L3.90012 8.09631L4.86684 9.06305L5.83354 10.0298L7.96033 7.90298C9.12769 6.73563 10.0907 5.77985 10.1017 5.77985C10.1126 5.77985 10.3023 5.96225 10.5212 6.18115Z" fill="#B0EBBD"/>
</g>
</svg>
